<?xml version="1.0" encoding="UTF-8"?>
<svg width="83px" height="74px" viewBox="0 0 83 74" version="1.1" xmlns="http://www.w3.org/2000/svg" xmlns:xlink="http://www.w3.org/1999/xlink">
    <title>0BFD4C22-2372-4763-8194-ACFD22A3B409</title>
    <defs>
        <polygon id="path-1" points="0 0 19 0 19 21 0 21"></polygon>
    </defs>
    <g id="Page-1" stroke="none" stroke-width="1" fill="none" fill-rule="evenodd">
        <g id="01_mapa" transform="translate(-55.000000, -22.000000)">
            <g id="header" transform="translate(1.000000, 0.000000)">
                <g id="ico-logo" transform="translate(54.000000, 22.000000)">
                    <g id="Group-6" fill="#FCD9D9">
                        <path d="M74,37.0000986 C74,57.4346234 57.4345603,74.0000812 37.000058,74.0000812 C16.5654397,74.0000812 0,57.4346234 0,37.0000986 C0,16.5655738 16.5654397,0 37.000058,0 C57.4345603,0 74,16.5655738 74,37.0000986" id="Fill-4"></path>
                    </g>
                    <path d="M18.8995096,22.4957757 C18.5361997,22.4770997 18.2040339,22.2701496 17.9461433,21.9901359 C17.6557642,21.6749155 17.4618421,21.2665675 17.3147481,20.847872 C17.2266934,20.5968818 17.1526422,20.3400869 17.0790392,20.0834182 C17.0465508,19.9706052 16.911892,19.9740123 16.8782833,20.0834182 C16.7653582,20.45025 16.6267783,20.8057248 16.4626559,21.1470664 C16.3264287,21.4302348 16.1746295,21.7141603 15.95214,21.9226247 C15.9427296,21.9313318 15.9332071,21.9397864 15.9236847,21.9481149 C15.6799097,22.1187226 15.3923314,22.2031432 15.1021764,22.1864862 C14.9866746,22.1797982 14.9578831,22.3933102 15.0743932,22.4169075 C15.8677822,22.5771677 16.5327861,23.2763817 16.7743205,24.1362343 C16.8427702,24.3799055 16.8758187,24.6316528 16.8703293,24.8871858 C16.8674165,25.0263724 17.0360201,25.0369723 17.0748941,24.9183545 C17.3312164,24.135982 17.6280931,23.2641413 18.3370123,22.8743431 C18.5123376,22.7779346 18.7044672,22.7267018 18.8995096,22.7303613 C19.0340564,22.7327589 19.0329361,22.5027161 18.8995096,22.4957757" id="Fill-7" fill="#FF5769"></path>
                    <path d="M7,37.5015993 C7,37.5015993 18.441357,21.5881639 34.6498977,21.014248 C50.8584384,20.4402174 64,37.5015993 64,37.5015993 C64,37.5015993 49.142229,53.0000812 35.5,53.0000812 C21.857771,53.0000812 7,37.5015993 7,37.5015993" id="Fill-9" fill="#FFFFFF"></path>
                    <path d="M47,36.5000812 C47,43.4036457 41.4035645,49.0000812 34.5,49.0000812 C27.5964355,49.0000812 22,43.4036457 22,36.5000812 C22,29.5965167 27.5964355,24.0000812 34.5,24.0000812 C41.4035645,24.0000812 47,29.5965167 47,36.5000812" id="Fill-11" fill="#561314"></path>
                    <path d="M31,40.0000812 C31,41.6568869 29.6569004,43.0000812 27.999939,43.0000812 C26.3430996,43.0000812 25,41.6568869 25,40.0000812 C25,38.3432755 26.3430996,37.0000812 27.999939,37.0000812 C29.6569004,37.0000812 31,38.3432755 31,40.0000812" id="Fill-13" fill="#FFFFFF"></path>
                    <path d="M13.7739867,26.9916013 C12.9564613,26.9540497 12.2090808,26.5402692 11.6288135,25.9803226 C10.9754342,25.3497885 10.5391358,24.533279 10.2083514,23.6957359 C10.0100232,23.1937804 9.84350346,22.6801791 9.67769585,22.1669344 C9.6048212,21.9410306 9.30180986,21.947923 9.22596801,22.1669344 C8.97209364,22.9003788 8.66018068,23.6113636 8.29094124,24.2940659 C7.98460662,24.8605483 7.64278419,25.4282191 7.14227545,25.8452082 C7.12114892,25.8626768 7.09978502,25.8796701 7.07818374,25.896188 C6.52960621,26.2373609 5.88263605,26.4063431 5.22973147,26.3729507 C4.97004138,26.3596413 4.90523754,26.7864936 5.16742009,26.8336707 C6.95225541,27.1542853 8.44855936,28.5528445 8.99215197,30.2724937 C9.14609076,30.7598326 9.22050835,31.2632141 9.20828345,31.7743198 C9.2016369,32.0526294 9.58096485,32.0739007 9.66843816,31.8365889 C10.2452635,30.2718995 10.9131228,28.5283647 12.5084128,27.7486938 C12.9028142,27.5559448 13.3349585,27.4533909 13.7739867,27.4606398 C14.0766419,27.4656308 14.0740308,27.0053861 13.7739867,26.9916013" id="Fill-15" fill="#FF5769"></path>
                    <path d="M40.4363938,33.8017885 C42.5408239,24.9229477 51.6625837,19.3811047 60.8103621,21.4236398 C69.9582587,23.466175 75.6680364,32.3196476 73.5636062,41.1984884 C71.4591761,50.0772144 62.3375346,55.6190574 53.1896379,53.5765223 C44.0417413,51.5341019 38.3319636,42.6806292 40.4363938,33.8017885" id="Fill-17" fill="#FFFFFF" opacity="0.657476381"></path>
                    <g id="Group-21" transform="translate(64.000000, 48.000081)">
                        <mask id="mask-2" fill="white">
                            <use xlink:href="#path-1"></use>
                        </mask>
                        <g id="Clip-20"></g>
                        <path d="M18.5048138,16.9125165 L14.0148032,20.6824697 C13.4343664,21.1700659 12.566454,21.0866472 12.0862777,20.4972662 L0.312736653,6.0452256 C-0.167556406,5.45584455 -0.085270475,4.57485377 0.495166313,4.08737615 L4.98529365,0.317422862 C5.56596387,-0.170054754 6.43375947,-0.0866361245 6.91393581,0.502863423 L18.6873601,14.9545485 C19.1675365,15.5439296 19.0853673,16.4250388 18.5048138,16.9125165" id="Fill-19" fill="#FF5769" mask="url(#mask-2)"></path>
                    </g>
                    <path d="M56.4691861,21.3784201 C53.4805206,21.3784201 50.545191,22.2149459 47.9493979,23.8398906 C44.3004838,26.1238072 41.7595371,29.6919692 40.7944957,33.887148 C39.829338,38.0822105 40.5558207,42.401956 42.8397328,46.050761 C45.123645,49.6995661 48.6919163,52.2405176 52.8870869,53.2054448 C57.0822576,54.1709529 61.4019947,53.4442363 65.0507926,51.1603198 C68.6994744,48.8764033 71.240421,45.3082412 72.2054625,41.1129463 C73.170504,36.9179999 72.4442536,32.5981383 70.1602253,28.9493332 C67.876197,25.3005282 64.3081581,22.7595766 60.1128712,21.7946495 C58.9024152,21.5160012 57.6813851,21.3784201 56.4691861,21.3784201 M56.5373955,57.0000812 C55.0708346,57.0000812 53.5945129,56.8335661 52.1298112,56.4967015 C47.0557033,55.3294697 42.7398008,52.2560885 39.9772607,47.8425694 C37.2146043,43.4292827 36.3360157,38.2042208 37.5033615,33.1299869 C38.670591,28.0557531 41.7440825,23.7398422 46.1574769,20.9772967 C50.5708712,18.214635 55.7956905,17.3361609 60.870147,18.5033927 C65.9443711,19.6707407 70.2602736,22.744122 73.0226975,27.1575249 C75.7853538,31.5709278 76.6639425,36.7959896 75.4967129,41.8702235 C74.3293671,46.9444574 71.2558756,51.2601358 66.8424813,54.0229137 C63.7029882,55.9880929 60.1517983,57.0000812 56.5373955,57.0000812" id="Fill-22" fill="#FF5769"></path>
                </g>
            </g>
        </g>
    </g>
</svg>